<svg xmlns="http://www.w3.org/2000/svg" xmlns:xlink="http://www.w3.org/1999/xlink">
  <defs>
    <symbol viewBox="0 0 24 24" id="vk">
      <path
        d="m21.9 16.84-.07-.14a10.78 10.78 0 0 0-2-2.42l-.01-.02-.01-.01-.01-.01h-.01c-.45-.45-.73-.75-.85-.9-.21-.3-.26-.59-.14-.89.08-.23.4-.7.93-1.43l.68-.93c1.2-1.68 1.72-2.76 1.56-3.22l-.06-.11c-.04-.07-.15-.13-.32-.18-.18-.06-.4-.07-.67-.03l-3 .02a.37.37 0 0 0-.2 0l-.14.04-.05.03-.05.03a.47.47 0 0 0-.11.11.76.76 0 0 0-.1.2 18.3 18.3 0 0 1-1.83 3.64 5.63 5.63 0 0 1-.93 1.1c-.12.1-.21.14-.27.13a7.35 7.35 0 0 1-.18-.04.72.72 0 0 1-.24-.27c-.05-.12-.1-.26-.12-.43a4.95 4.95 0 0 1-.03-.97l.01-.46a28.65 28.65 0 0 1 .05-1.67v-.6c0-.22 0-.38-.03-.5a1.77 1.77 0 0 0-.11-.36.58.58 0 0 0-.21-.26c-.1-.06-.21-.11-.35-.15a6.6 6.6 0 0 0-1.4-.14c-1.3-.01-2.13.07-2.5.26a2 2 0 0 0-.4.33c-.12.16-.13.25-.04.27.41.06.7.22.88.47l.06.13c.05.1.1.26.15.5a8.96 8.96 0 0 1-.15 3.57l-.12.24a.18.18 0 0 1-.05.06.75.75 0 0 1-.29.05c-.1 0-.21-.05-.35-.15a2.4 2.4 0 0 1-.43-.42 5.64 5.64 0 0 1-.5-.75c-.2-.32-.39-.7-.59-1.14l-.17-.32a27.9 27.9 0 0 1-.9-2.03.72.72 0 0 0-.25-.35l-.05-.03a1.06 1.06 0 0 0-.4-.16l-2.86.02c-.3 0-.5.07-.6.2l-.04.07A.37.37 0 0 0 2 7c0 .08.02.18.06.3a37 37 0 0 0 2.64 5.28 27.35 27.35 0 0 0 2.13 2.98l.26.26a12.47 12.47 0 0 0 1.8 1.35 5.66 5.66 0 0 0 2.9.77h1.2a.8.8 0 0 0 .55-.24l.04-.06a1.16 1.16 0 0 0 .11-.5 3.8 3.8 0 0 1 .25-1.42 1.4 1.4 0 0 1 .4-.48.68.68 0 0 1 .08-.04c.17-.06.37 0 .6.17.22.17.43.38.63.64.2.25.43.53.71.84a5 5 0 0 0 .73.7l.2.14c.15.08.33.16.55.24.22.07.41.09.58.05l2.67-.04c.26 0 .47-.05.61-.14.15-.09.23-.2.26-.3a.9.9 0 0 0 0-.37 1.43 1.43 0 0 0-.07-.3Z"
        fill="#2787F5"
      ></path>
    </symbol>
     <symbol viewBox="0 0 28 28" id="mailru">
      	<path id="Layer" fill-rule="evenodd" class="s0" d="m17.3 5.9c1.1 0.5 2.1 1.1 2.9 1.9 0.8 0.8 1.4 1.8 1.9 2.9 0.4 1 0.6 2.2 0.6 3.3q0 0.2 0 0.4 0 0.3 0 0.5 0 0.2-0.1 0.4 0 0.3 0 0.5c0 0-0.1 0.3-0.1 0.4q-0.1 0.2-0.2 0.4-0.1 0.3-0.3 0.5-0.1 0.2-0.3 0.4-0.2 0.2-0.4 0.3-0.2 0.2-0.4 0.3-0.2 0.1-0.4 0.2-0.2 0-0.5 0.1-0.2 0-0.4 0-0.2 0-0.3 0-0.3 0-0.6-0.1-0.3-0.1-0.6-0.3-0.3-0.1-0.6-0.4-0.2-0.2-0.4-0.5c-1.5 1.5-3.8 1.8-5.6 0.6-1.7-1.2-2.4-3.4-1.6-5.4 0.8-2 2.9-3.1 5-2.6 2 0.4 3.5 2.2 3.5 4.3v1.4q0 0.2 0.1 0.5 0 0.2 0.2 0.3 0.1 0.2 0.3 0.3 0.2 0.1 0.5 0.1 0.2 0 0.4 0 0.3-0.1 0.4-0.3 0.2-0.1 0.3-0.4 0.2-0.2 0.2-0.4c0.7-3.3-1-6.5-4-7.9-3.1-1.3-6.6-0.3-8.5 2.4-1.9 2.7-1.6 6.4 0.7 8.8 2.3 2.4 6 2.8 8.8 1l1.1 1.4c-2.3 1.6-5.2 2-7.8 1.1-2.6-1-4.6-3.1-5.5-5.7-0.8-2.7-0.3-5.6 1.4-7.8 1.6-2.2 4.2-3.5 7-3.5 1.1 0 2.3 0.2 3.3 0.6zm-0.9 7.1q-0.2-0.5-0.5-0.9-0.4-0.3-0.9-0.5-0.5-0.2-1-0.2c-1.1 0-2 0.6-2.4 1.6-0.4 1-0.2 2.1 0.5 2.9 0.8 0.7 1.9 0.9 2.9 0.5 1-0.4 1.6-1.3 1.6-2.4q0-0.5-0.2-1z"/>
    </symbol>
    <symbol viewBox="0 0 26 28" id="ya">
    	<path id="Glyph" class="s0" d="m20 24.1h-3.7v-18.3h-1.6c-3 0-4.6 1.6-4.6 3.8 0 2.5 1.1 3.7 3.3 5.2l1.9 1.3-5.3 8h-4l4.8-7.2c-2.8-1.9-4.3-3.9-4.3-7.1 0-4 2.8-6.8 8.2-6.8h5.3z"/>
    </symbol>

  </defs>
</svg>
